<svg width="24" height="21" viewBox="0 0 24 21" fill="none" xmlns="http://www.w3.org/2000/svg">
<path d="M3 0C1.57234 0 0.377595 0.997255 0.0743781 2.33316L12 9.62104L23.9256 2.33316C23.6224 0.997255 22.4277 0 21 0H3Z" fill="black"/>
<path d="M0 14.7009V4.04563L8.70479 9.36522L0 14.7009Z" fill="black"/>
<path d="M10.1421 10.2436L0.287807 16.2838C0.768906 17.2984 1.80252 18 3 18H12.3841C12.1353 17.2962 12 16.5389 12 15.75C12 13.6754 12.9359 11.8194 14.4086 10.5811L13.8579 10.2436L12 11.379L10.1421 10.2436Z" fill="black"/>
<path d="M24 11.507V4.04563L15.2952 9.36522L15.8022 9.67598C16.6929 9.24292 17.6931 9 18.75 9C20.8705 9 22.7625 9.97775 24 11.507Z" fill="black"/>
<path d="M23.7508 15.3663C23.7508 17.1174 22.8851 18.4029 21.3701 18.4029C20.6159 18.4029 19.8682 18.0618 19.6911 17.4322H19.6255C19.4485 18.0553 18.8123 18.3963 18.104 18.3963C16.9497 18.3963 16.2152 17.5831 16.2152 16.2452V15.4516C16.2152 14.1858 16.9366 13.3529 18.104 13.3529C18.9828 13.3529 19.4091 13.8513 19.5337 14.2973H19.5796V13.4447H20.9372V16.7305C20.9372 17.1371 21.2061 17.3601 21.5537 17.3601C22.0259 17.3601 22.5112 16.737 22.5112 15.2745V15.0974C22.5112 13.1824 21.0881 11.6084 18.7861 11.6084H18.727C16.3529 11.6084 14.7658 13.2086 14.7658 15.6943V15.9304C14.7658 18.7308 16.6218 19.9113 18.6221 19.9113H18.6877C19.4485 19.9113 20.0912 19.8064 20.4585 19.6424V20.7377C20.1305 20.8885 19.4944 21 18.6024 21H18.5368C15.6577 21 13.5 19.2292 13.5 15.9697V15.6483C13.5 12.5397 15.6315 10.5 18.727 10.5H18.7795C21.9603 10.5 23.7508 12.6446 23.7508 15.0515V15.3663ZM17.6908 15.6811V16.0222C17.6908 16.901 18.0319 17.2224 18.5631 17.2224C19.0287 17.2224 19.4091 16.9666 19.4091 16.1074V15.5565C19.4091 14.7826 18.9959 14.4941 18.55 14.4941C18.0319 14.4941 17.6908 14.8613 17.6908 15.6811Z" fill="black"/>
</svg>
